<?xml version="1.0" encoding="UTF-8" standalone="no"?>
<svg width="35px" height="40px" viewBox="0 0 35 40" version="1.1" xmlns="http://www.w3.org/2000/svg" xmlns:xlink="http://www.w3.org/1999/xlink">
    <!-- Generator: Sketch 40.1 (33804) - http://www.bohemiancoding.com/sketch -->
    <title>Combined Shape</title>
    <desc>Created with Sketch.</desc>
    <defs></defs>
    <g id="Page-1" stroke="none" stroke-width="1" fill="none" fill-rule="evenodd">
        <path d="M17.5,0 L0,9.933 L0,29.798 L17.5,39.73 L35,29.798 L35,9.933 L17.5,0 Z M9.86902071,25.689573 L9.86902071,22.3985574 L19.6248801,22.3985574 C21.0571789,22.3985574 22.1932353,22.8689303 23.0330832,23.8096902 C23.8729312,24.7504501 24.2928488,25.9271962 24.2928488,27.3399637 C24.2928488,28.8829401 23.9217588,30.1020035 23.1795676,30.9971902 C22.4373764,31.892377 21.3403821,32.3236878 19.888552,32.2911355 L19.8299582,32.2716043 L19.8299582,29.048948 C20.5200658,29.048948 21.013225,28.8894444 21.3094504,28.5704324 C21.6056758,28.2514204 21.7537863,27.8412683 21.7537863,27.3399637 C21.7537863,26.8907427 21.5682413,26.5033767 21.1971457,26.1778543 C20.8260501,25.8523318 20.3019668,25.689573 19.6248801,25.689573 L9.86902071,25.689573 Z M18.3846457,15.3380105 L18.3846457,16.861448 L24.0877707,16.861448 L24.0877707,20.1719949 L9.86902071,20.1719949 L9.86902071,16.861448 L15.435427,16.861448 L15.435427,15.7384012 L9.86902071,12.6134012 L9.86902071,8.51183866 L16.3045676,12.9161355 L24.0877707,8.13097929 L24.0877707,12.1544168 L18.3846457,15.3380105 Z" id="Combined-Shape" fill="#FFFFFF"></path>
    </g>
</svg>